<svg version="1.1" id="Camada_1" xmlns="http://www.w3.org/2000/svg" xmlns:xlink="http://www.w3.org/1999/xlink" x="0px" y="0px" viewBox="0 0 405 201" style="enable-background:new 0 0 405 201;" xml:space="preserve">
<style type="text/css">
	.st0{fill-rule:evenodd;clip-rule:evenodd;fill:#FAA832;}
	.st1{fill:none;stroke:#FAA832;stroke-width:4;stroke-miterlimit:10;}
</style>
<title>logo</title>
<path id="Forma_2" class="st0" d="M20.26,43.05c1.46,3.46,4.04,6.34,7.32,8.17c2.09,1.24,4.44,2.01,6.86,2.23h30.76v87.85&#xA;&#x9;c0.46,9.34,8.38,16.56,17.73,16.15v-104h30.99c2.43-0.37,4.76-1.2,6.86-2.46c2.53-1.44,4.67-3.5,6.2-5.97&#xA;&#x9;c1.68-2.8,2.53-6.02,2.43-9.29H26.04c5.66-6.69,12.21-12.56,19.47-17.47c42.29-28.38,99.22-19.98,131.52,19.4&#xA;&#x9;c8.84,11,15.25,23.74,18.81,37.39c1.39,5.23,2.35,10.57,2.89,15.96l-0.23-0.46c-0.49-0.76-1.02-1.48-1.54-2.2&#xA;&#x9;c-1.92-2.6-4.12-4.98-6.57-7.09c-4.32-3.51-9.19-6.27-14.41-8.17c-3.36-1.33-6.85-2.29-10.41-2.89c-4.84-0.75-9.75-0.83-14.61-0.23&#xA;&#x9;c-6.46,0.7-12.73,2.6-18.48,5.61c-6.6,3.44-12.24,8.46-16.41,14.61c-4.11,6.04-6.56,13.06-7.09,20.35&#xA;&#x9;c-0.4,6.85,0.89,13.69,3.74,19.93c2.97,6.57,7.48,12.33,13.13,16.81c5.91,4.62,12.81,7.8,20.16,9.29&#xA;&#x9;c6.18,1.38,12.55,1.61,18.81,0.69c6.63-0.99,13.01-3.21,18.81-6.57c0.98-0.56,1.94-1.15,2.89-1.77l-0.43,0.69&#xA;&#x9;c-1.35,2.27-2.72,4.46-4.24,6.57c-2.03,3-4.22,5.88-6.57,8.63c-4.08,4.63-8.6,8.85-13.49,12.61c-5.65,4.39-11.74,8.16-18.19,11.26&#xA;&#x9;c-19.07,9.16-40.56,12.02-61.36,8.17c-9.25-1.71-18.19-4.76-26.56-9.06c-12.26-6.45-23.04-15.4-31.65-26.26&#xA;&#x9;C1.18,133.28-4.28,94.74,9.86,61.27c2.66-6.15,5.96-12,9.85-17.47L20.26,43.05z M127.19,105.42h59.78c-1.21-3.55-3.17-6.8-5.75-9.52&#xA;&#x9;c-2.52-2.47-5.44-4.49-8.63-5.97c-4.76-2.3-9.98-3.51-15.27-3.55c-5.97,0.04-11.83,1.57-17.07,4.43c-3.18,1.66-6.03,3.88-8.4,6.57&#xA;&#x9;c-1.89,2.16-3.39,4.62-4.43,7.29L127.19,105.42z M127.19,121.15h59.36c2.22,0.05,4.44-0.25,6.57-0.89c1.63-0.48,3.19-1.16,4.66-2&#xA;&#x9;l-3.28,12.84l-1.54-0.43c-0.87-0.23-1.76-0.39-2.66-0.46h-2.66c-1.05,0.04-2.1,0.19-3.12,0.46c-1.88,0.41-3.67,1.16-5.29,2.2&#xA;&#x9;c-0.95,0.69-1.64,1.48-2.66,2.2l-1.77,1.12c-1.78,1.03-3.63,1.92-5.55,2.66c-2.43,0.88-4.95,1.48-7.52,1.77&#xA;&#x9;c-2.87,0.36-5.77,0.36-8.63,0c-5.65-0.68-11.05-2.73-15.73-5.97c-2.55-1.79-4.77-4.01-6.57-6.57c-1.44-2-2.54-4.22-3.28-6.57&#xA;&#x9;L127.19,121.15z"/>
<path id="_kz" class="st0" d="M310.37,151.45l-56.27-49.67l54.07-50.43c-6.41-7.04-17.28-7.61-24.39-1.28l-40.15,37.39&#xA;&#x9;c-3.78,3.93-5.83,9.22-5.68,14.67c0.02,5.43,2.28,10.61,6.24,14.31l42.68,37.59c7.16,5.65,17.49,4.69,23.47-2.2L310.37,151.45z&#xA;&#x9; M233.18,139.93V52.11c-0.16-9.59-8-17.27-17.6-17.24v122.45h1.28c9.3-0.36,16.6-8.1,16.41-17.4L233.18,139.93z M402.42,85.66&#xA;&#x9;c0-9.55-8.08-14.67-17.79-14.67h-72.06c0.16,8.95,7.46,16.12,16.41,16.12h51.08l-63.82,43.63c-3.98,2.28-6.54,6.42-6.8,11&#xA;&#x9;c0,9,7.16,14.67,16.15,14.67h76.1c-0.24-9.15-7.86-16.38-17.01-16.14c-0.14,0-0.28,0.01-0.42,0.02h-52.53l63.72-43.53&#xA;&#x9;C399.54,94.51,402.18,90.31,402.42,85.66L402.42,85.66z"/>
<path id="Tecnologias" class="st0" d="M194.15,178.83v-14.67h7.06v-1.94h-16.18v1.94h7.03v14.67H194.15z M217.52,178.83v-1.87h-10.7&#xA;&#x9;v-3.94h6.57v-1.87h-6.57v-3.28h10.14v-1.84h-12.18v12.8H217.52z M237.78,174.53c-1.17,1.83-3.22,2.9-5.38,2.82&#xA;&#x9;c-1.5,0.06-2.96-0.45-4.1-1.41c-1.92-1.69-2.15-4.6-0.53-6.57l0.53-0.49c1.14-0.97,2.61-1.47,4.1-1.41c1.01-0.02,2,0.18,2.92,0.59&#xA;&#x9;c0.85,0.37,1.59,0.96,2.13,1.71l1.61-1.12c-0.72-0.98-1.68-1.76-2.79-2.27c-1.22-0.54-2.54-0.81-3.87-0.79&#xA;&#x9;c-2.05-0.07-4.05,0.62-5.61,1.94c-2.72,2.4-2.98,6.55-0.58,9.27c0.01,0.01,0.01,0.02,0.02,0.02l0.56,0.56&#xA;&#x9;c1.57,1.32,3.57,2.01,5.61,1.94c1.42,0.01,2.82-0.31,4.1-0.92c1.18-0.61,2.18-1.53,2.89-2.66L237.78,174.53z M250.12,178.83v-8.93&#xA;&#x9;l8.21,9.06h1.05v-12.93h-1.97v9.09l-8.34-9.09h-1.05v12.8H250.12z M271.69,175.94c-1.9-1.71-2.11-4.61-0.46-6.57&#xA;&#x9;c0.14-0.17,0.29-0.32,0.46-0.46c1.19-0.98,2.7-1.48,4.24-1.41c1.53-0.07,3.03,0.43,4.2,1.41c1.96,1.65,2.21,4.57,0.56,6.52&#xA;&#x9;c-0.01,0.01-0.02,0.03-0.04,0.04c-0.15,0.19-0.31,0.37-0.49,0.53c-2.51,1.88-5.96,1.88-8.47,0V175.94z M281.54,177.29&#xA;&#x9;c2.69-2.39,2.96-6.51,0.59-9.23c-0.16-0.23-0.36-0.43-0.59-0.59c-3.37-2.58-8.05-2.58-11.42,0c-2.69,2.39-2.96,6.51-0.59,9.23&#xA;&#x9;l0.59,0.59c1.59,1.34,3.63,2.04,5.71,1.97C277.91,179.34,279.95,178.64,281.54,177.29L281.54,177.29z M304,178.83v-1.87h-9.62&#xA;&#x9;v-10.93h-2.04v12.8H304z M313.65,175.94c-1.91-1.7-2.13-4.6-0.49-6.57l0.49-0.46c1.18-0.98,2.67-1.48,4.2-1.41&#xA;&#x9;c1.54-0.07,3.05,0.43,4.24,1.41c1.94,1.68,2.17,4.6,0.53,6.57c-0.16,0.19-0.33,0.37-0.53,0.53c-2.5,1.88-5.94,1.88-8.44,0&#xA;&#x9;L313.65,175.94z M323.5,177.29c2.7-2.38,2.98-6.5,0.62-9.23l-0.59-0.59c-1.58-1.21-3.53-1.84-5.52-1.77&#xA;&#x9;c-2.07-0.08-4.09,0.61-5.68,1.94c-2.7,2.38-2.98,6.5-0.62,9.23l0.62,0.59c3.34,2.62,8.05,2.62,11.39,0L323.5,177.29z M346.48,173.81&#xA;&#x9;v1.38c-0.48,0.7-1.17,1.24-1.97,1.54c-0.99,0.42-2.05,0.63-3.12,0.62c-1.57,0.06-3.1-0.44-4.33-1.41c-1.99-1.58-2.32-4.47-0.75-6.46&#xA;&#x9;c0.03-0.04,0.06-0.07,0.09-0.11c0.19-0.24,0.41-0.46,0.66-0.66c1.23-0.97,2.77-1.47,4.33-1.41c1.07-0.02,2.13,0.18,3.12,0.59&#xA;&#x9;c0.86,0.38,1.61,0.97,2.2,1.71l1.58-1.12c-0.75-0.99-1.75-1.77-2.89-2.27c-1.26-0.55-2.63-0.82-4.01-0.79&#xA;&#x9;c-2.11-0.08-4.17,0.61-5.81,1.94c-2.65,2.32-3,6.32-0.79,9.06c0.23,0.29,0.48,0.55,0.76,0.79c1.65,1.33,3.73,2.02,5.84,1.94&#xA;&#x9;c1.45,0.04,2.89-0.27,4.2-0.89c1.19-0.55,2.2-1.43,2.92-2.53v-3.68h-5.22v1.87L346.48,173.81z M359.61,178.83v-12.84h-2.07v12.84&#xA;&#x9;L359.61,178.83z M374.12,168.98l2.5,4.96h-5.06L374.12,168.98z M369,178.83l1.67-3.28h6.86l1.67,3.28h2.17l-6.57-12.93h-1.28&#xA;&#x9;l-6.57,12.93H369z M390.9,178.83c1.2,0.36,2.45,0.55,3.71,0.56c1.48,0.05,2.95-0.37,4.17-1.21c1-0.7,1.6-1.84,1.61-3.05&#xA;&#x9;c0.07-1.25-0.53-2.44-1.58-3.12c-1.43-0.79-3.06-1.15-4.69-1.05c-1.11,0.09-2.22-0.03-3.28-0.36c-0.54-0.16-0.91-0.65-0.92-1.21&#xA;&#x9;c0.01-0.59,0.37-1.12,0.92-1.35c0.73-0.39,1.54-0.57,2.36-0.53c0.91,0.01,1.8,0.16,2.66,0.46c0.92,0.29,1.79,0.71,2.59,1.25&#xA;&#x9;l1.02-1.67c-0.93-0.62-1.95-1.1-3.02-1.41c-1.07-0.31-2.17-0.46-3.28-0.46c-1.38-0.08-2.74,0.28-3.91,1.02&#xA;&#x9;c-0.9,0.6-1.44,1.61-1.44,2.69c-0.09,1.03,0.42,2.03,1.31,2.56c1.53,0.65,3.2,0.93,4.86,0.82c1.05-0.05,2.1,0.15,3.05,0.59&#xA;&#x9;c0.63,0.3,1.01,0.95,0.98,1.64c0,0.75-0.4,1.43-1.05,1.81c-0.83,0.52-1.81,0.77-2.79,0.72c-1.03-0.01-2.04-0.18-3.02-0.49&#xA;&#x9;c-1.04-0.33-2.02-0.8-2.92-1.41l-0.98,1.71c1.02,0.66,2.12,1.17,3.28,1.51H390.9z"/>
<circle id="Elipse_1" class="st1" cx="389.58" cy="48.29" r="11.6"/>
<path id="Forma_1" class="st0" d="M383.63,41.02h6.17c1.36,0.28,5.08-0.87,6.26,3.94c-0.3-1.23,0.33,1.23-0.81,2.86&#xA;&#x9;c-0.74,1.1-1.94,1.45-2.33,1.61c-0.2,0.09-0.41,0.16-0.63,0.18v0.09c0.04,0.07,3.65,5.43,3.67,5.46h-3.49l-3.67-5.55&#xA;&#x9;c-0.01,0-1.87,0-1.88,0v5.55h-3.31V41.02z M386.85,44.24v2.24c2.63,0,4.19,0,4.83,0c0.52,0,1.07-0.47,1.07-1.07&#xA;&#x9;c0-0.65-0.58-0.97-0.81-1.16C390.56,44.23,388.52,44.24,386.85,44.24z"/>
</svg>
